<svg width="56" height="56" viewBox="0 0 56 56" fill="none" xmlns="http://www.w3.org/2000/svg">
<rect x="4" y="4" width="48" height="48" rx="24" fill="#F4EBFF"/>
<path d="M31 18V19.4C31 19.9601 31 20.2401 30.891 20.454C30.7951 20.6422 30.6422 20.7951 30.454 20.891C30.2401 21 29.9601 21 29.4 21H26.6C26.0399 21 25.7599 21 25.546 20.891C25.3578 20.7951 25.2049 20.6422 25.109 20.454C25 20.2401 25 19.9601 25 19.4V18M24.2 38H31.8C32.9201 38 33.4802 38 33.908 37.782C34.2843 37.5903 34.5903 37.2843 34.782 36.908C35 36.4802 35 35.9201 35 34.8V21.2C35 20.0799 35 19.5198 34.782 19.092C34.5903 18.7157 34.2843 18.4097 33.908 18.218C33.4802 18 32.9201 18 31.8 18H24.2C23.0799 18 22.5198 18 22.092 18.218C21.7157 18.4097 21.4097 18.7157 21.218 19.092C21 19.5198 21 20.0799 21 21.2V34.8C21 35.9201 21 36.4802 21.218 36.908C21.4097 37.2843 21.7157 37.5903 22.092 37.782C22.5198 38 23.0799 38 24.2 38Z" stroke="#7F56D9" stroke-width="2" stroke-linecap="round" stroke-linejoin="round"/>
<g clip-path="url(#clip0_35_12329)">
<path d="M27 27V25.95C27 25.53 27 25.3199 27.0817 25.1595C27.1537 25.0184 27.2684 24.9037 27.4095 24.8317C27.5699 24.75 27.78 24.75 28.2 24.75H31.05C31.47 24.75 31.6801 24.75 31.8405 24.8317C31.9816 24.9037 32.0963 25.0184 32.1683 25.1595C32.25 25.3199 32.25 25.53 32.25 25.95V28.8C32.25 29.22 32.25 29.4301 32.1683 29.5905C32.0963 29.7316 31.9816 29.8463 31.8405 29.9183C31.6801 30 31.47 30 31.05 30H30M25.95 32.25H28.8C29.22 32.25 29.4301 32.25 29.5905 32.1683C29.7316 32.0963 29.8463 31.9816 29.9183 31.8405C30 31.6801 30 31.47 30 31.05V28.2C30 27.78 30 27.5699 29.9183 27.4095C29.8463 27.2684 29.7316 27.1537 29.5905 27.0817C29.4301 27 29.22 27 28.8 27H25.95C25.53 27 25.3199 27 25.1595 27.0817C25.0184 27.1537 24.9037 27.2684 24.8317 27.4095C24.75 27.5699 24.75 27.78 24.75 28.2V31.05C24.75 31.47 24.75 31.6801 24.8317 31.8405C24.9037 31.9816 25.0184 32.0963 25.1595 32.1683C25.3199 32.25 25.53 32.25 25.95 32.25Z" stroke="#7F56D9" stroke-linecap="round" stroke-linejoin="round"/>
</g>
<rect x="4" y="4" width="48" height="48" rx="24" stroke="#F9F5FF" stroke-width="8"/>
<defs>
<clipPath id="clip0_35_12329">
<rect width="9" height="9" fill="white" transform="translate(24 24)"/>
</clipPath>
</defs>
</svg>
